# xmcd
#
# Track frame offsets: 
#        182
#        15860
#        31532
#
# Disc length: 628 seconds
#
# Revision: 0
# Processed by: cddbd v1.5.2PL0 Copyright (c) Steve Scherf et al.
# Submitted via: ExactAudioCopy v0.99pb4
#
DISCID=0c027203
DTITLE=EPMD - The Joint
DYEAR=1997
DGENRE=Rap
TTITLE0=The Joint (Radio Edit)
TTITLE1=The Joint (LP Version)
TTITLE2=You Gots 2 Chill '97 (Radio Edit)
EXTD=
EXTT0=
EXTT1=
EXTT2=
PLAYORDER=
